HIERARCHY
ROOT Hips
{
	OFFSET -3.958830 18.904000 13.208200
	CHANNELS 6 Xposition Yposition Zposition Zrotation Yrotation Xrotation 
	JOINT LHipJoint
	{
		OFFSET 0.000000 0.000000 0.000000
		CHANNELS 3 Zrotation Yrotation Xrotation
		JOINT LeftUpLeg
		{
			OFFSET 1.800000 -1.400000 0.085000
			CHANNELS 3 Zrotation Yrotation Xrotation
			JOINT LeftLeg
			{
				OFFSET 2.215000 -6.000000 0.000000
				CHANNELS 3 Zrotation Yrotation Xrotation
				JOINT LeftFoot
				{
					OFFSET 2.500000 -6.900000 0.000000
					CHANNELS 3 Zrotation Yrotation Xrotation
					JOINT LeftToeBase
					{
						OFFSET 0.200000 -0.500000 1.950000
						CHANNELS 3 Zrotation Yrotation Xrotation
						End Site
						{
							OFFSET 0.000000 0.000000 0.000000
						}
					}
				}
			}
		}
	}
	JOINT RHipJoint
	{
		OFFSET 0.000000 0.000000 0.000000
		CHANNELS 3 Zrotation Yrotation Xrotation
		JOINT RightUpLeg
		{
			OFFSET -1.800000 -1.400000 0.085000
			CHANNELS 3 Zrotation Yrotation Xrotation
			JOINT RightLeg
			{
				OFFSET -2.215000 -6.000000 0.000000
				CHANNELS 3 Zrotation Yrotation Xrotation
				JOINT RightFoot
				{
					OFFSET -2.500000 -6.900000 0.000000
					CHANNELS 3 Zrotation Yrotation Xrotation
					JOINT RightToeBase
					{
						OFFSET -0.200000 -0.500000 1.950000
						CHANNELS 3 Zrotation Yrotation Xrotation
						End Site
						{
							OFFSET 0.000000 0.000000 0.000000
						}
					}
				}
			}
		}
	}
	JOINT LowerBack
	{
		OFFSET 0.000000 0.000000 0.000000
		CHANNELS 3 Zrotation Yrotation Xrotation
		JOINT Spine
		{
			OFFSET -0.087000 1.940000 -0.288900
			CHANNELS 3 Zrotation Yrotation Xrotation
			JOINT Spine1
			{
				OFFSET 0.000000 1.950000 0.060000
				CHANNELS 3 Zrotation Yrotation Xrotation
				JOINT Neck
				{
					OFFSET 0.000000 0.000000 0.000000
					CHANNELS 3 Zrotation Yrotation Xrotation
					JOINT Neck1
					{
						OFFSET 0.000000 1.600000 0.340000
						CHANNELS 3 Zrotation Yrotation Xrotation
						JOINT Head
						{
							OFFSET 0.000000 1.667000 -0.240000
							CHANNELS 3 Zrotation Yrotation Xrotation
							End Site
							{
								OFFSET 0.000000 0.000000 0.000000
							}
						}
					}
				}
				JOINT LeftShoulder
				{
					OFFSET 0.000000 0.000000 0.000000
					CHANNELS 3 Zrotation Yrotation Xrotation
					JOINT LeftArm
					{
						OFFSET 2.700000 1.550000 -0.730000
						CHANNELS 3 Zrotation Yrotation Xrotation
						JOINT LeftForeArm
						{
							OFFSET 5.450000 0.000000 0.000000
							CHANNELS 3 Zrotation Yrotation Xrotation
							JOINT LeftHand
							{
								OFFSET 3.450000 0.000000 0.000000
								CHANNELS 3 Zrotation Yrotation Xrotation
								JOINT LeftHandIndex1
								{
									OFFSET 0.750000 0.000000 0.000000
									CHANNELS 3 Zrotation Yrotation Xrotation
									End Site
									{
										OFFSET 0.000000 0.000000 0.000000
									}
								}
							}
						}
					}
				}
				JOINT RightShoulder
				{
					OFFSET 0.000000 0.000000 0.000000
					CHANNELS 3 Zrotation Yrotation Xrotation
					JOINT RightArm
					{
						OFFSET -2.700000 1.550000 -0.730000
						CHANNELS 3 Zrotation Yrotation Xrotation
						JOINT RightForeArm
						{
							OFFSET -5.450000 0.000000 0.000000
							CHANNELS 3 Zrotation Yrotation Xrotation
							JOINT RightHand
							{
								OFFSET -3.450000 0.000000 0.000000
								CHANNELS 3 Zrotation Yrotation Xrotation
								JOINT RightHandIndex1
								{
									OFFSET -0.750000 0.000000 0.000000
									CHANNELS 3 Zrotation Yrotation Xrotation
									End Site
									{
										OFFSET 0.000000 0.000000 0.000000
									}
								}
							}
						}
					}
				}
			}
		}
	}
}
MOTION
Frames: 6
Frame Time: 0.016667
0.335110 16.738940 -3.870810 -2.275541 4.192700 6.386099 -15.165760 13.648086 2.734902 13.261427 -1.471128 -19.164640 -3.564174 6.003705 17.623054 -0.346232 4.024862 3.081310 0.222330 0.039200 0.343250 18.065003 -11.484064 2.250854 -15.664049 0.729586 -13.941986 5.177353 -5.725394 16.743891 -0.153904 -3.593217 3.087231 0.062370 0.028050 0.144050 -3.369248 -1.350404 -6.955298 7.695865 1.221841 8.220150 -0.375498 1.427259 -0.179770 4.701244 2.562182 -6.851001 4.470956 5.169574 23.831720 -2.607870 9.982230 -14.962470 -24.604130 -0.683335 0.582454 -53.513665 0.113470 -4.432781 -3.035027 -8.024261 -0.877566 -3.941149 2.807275 0.348210 0.075120 0.055250 0.007350 15.855427 -0.459190 3.787814 49.081399 -3.665523 -12.256519 17.107480 45.330913 4.174177 2.148518 -1.489217 -0.148620 0.077490 -0.037810 -0.258450 
0.352000 16.752530 -3.869610 -1.841470 5.066764 6.688941 -15.146733 13.563125 2.729156 12.530537 -1.615340 -19.475557 -3.483107 5.834928 17.404049 -0.394086 3.946006 3.104093 0.212080 0.035060 0.345030 18.089258 -11.518867 2.266561 -16.087747 0.731236 -13.762228 5.350110 -5.776602 16.299674 -0.154356 -3.641755 3.059195 0.074120 0.046380 0.160490 -3.453204 -1.150458 -6.935827 8.831928 1.422391 8.246354 -0.747351 1.614373 0.039994 5.409299 3.760755 -7.002954 6.663096 5.958407 22.648905 -2.589660 11.408500 -15.423530 -24.487371 -0.888789 0.637146 -53.493300 0.303403 -4.554186 -3.484794 -8.081658 -0.910726 -3.989044 2.806245 0.346680 0.106770 0.048030 -0.008830 14.312537 -1.209705 3.891441 47.653768 -3.939124 -11.718704 21.700666 47.335638 6.110573 2.123869 -1.551649 -0.163050 0.077350 -0.016380 -0.274290 
0.365290 16.766880 -3.872600 -1.436823 6.018462 7.006463 -15.128606 13.500290 2.723008 11.734685 -1.746138 -19.720625 -3.192639 5.574992 16.994381 -0.439064 3.834521 3.143561 0.204250 0.033630 0.339590 18.113178 -11.570529 2.260673 -16.160821 0.749568 -13.727970 4.973704 -5.696632 16.139245 -0.144245 -3.658457 3.045620 0.087410 0.073380 0.182610 -3.536743 -0.967824 -6.895923 9.968672 1.638630 8.100997 -0.943752 1.790332 0.338960 5.984124 4.553550 -7.132691 8.112799 6.649578 21.546455 -2.706970 12.500880 -15.287380 -24.261457 -1.003928 0.643122 -53.659477 0.387279 -4.586139 -3.819963 -7.890012 -0.942332 -4.045041 2.813999 0.330890 0.146280 0.033980 -0.017820 12.922118 -1.738973 4.024482 46.046163 -4.198513 -11.006928 26.266479 48.376276 8.001052 2.105594 -1.619145 -0.170420 0.073140 0.003280 -0.280600 
0.371130 16.781350 -3.873310 -1.036829 6.958365 7.206689 -15.113523 13.443563 2.721099 11.173412 -1.806664 -19.685475 -3.121251 5.355565 16.243126 -0.474066 3.726162 3.184713 0.208740 0.042540 0.350080 18.132195 -11.614140 2.252367 -16.272480 0.765624 -13.675485 4.757017 -5.686098 16.172426 -0.148609 -3.684409 3.027251 0.101000 0.083120 0.199640 -3.607921 -0.811691 -6.866959 10.934422 1.903501 8.035051 -0.978647 2.025785 0.566961 6.394950 5.047014 -7.182092 9.023034 7.171813 20.752655 -3.070050 13.438820 -15.664920 -23.799197 -0.721306 0.546908 -53.811516 0.523139 -4.748802 -4.540668 -8.164894 -0.967953 -4.075829 2.814793 0.328990 0.167770 0.035790 -0.022240 11.624999 -2.398982 4.084054 44.926271 -4.396117 -10.386582 30.289724 49.001778 9.695411 2.095149 -1.671686 -0.174940 0.072310 0.008870 -0.288920 
0.376900 16.794890 -3.872820 -0.565863 8.019404 7.538402 -15.100088 13.379275 2.713140 10.417517 -1.913682 -19.807877 -2.815178 5.079609 15.587266 -0.510033 3.594031 3.233188 0.214840 0.054070 0.354870 18.155161 -11.650391 2.241964 -16.457726 0.790985 -13.803336 4.621191 -5.691400 16.302905 -0.143593 -3.719749 2.999423 0.119290 0.093920 0.213700 -3.684279 -0.660609 -6.813781 11.635129 2.138865 7.723626 -0.909426 2.185198 0.915490 6.557703 5.106720 -7.168223 9.152210 7.531293 19.740278 -3.392860 13.904610 -15.679650 -22.904496 -0.111384 0.381615 -54.160473 0.657695 -4.997695 -5.537378 -8.691153 -0.987064 -4.105893 2.829077 0.312550 0.189570 0.027170 -0.027210 10.396412 -3.084541 4.116373 44.510354 -4.641295 -10.011690 33.356062 49.635567 11.038248 2.081502 -1.730229 -0.175090 0.067000 0.015460 -0.291430 
0.379030 16.808880 -3.879260 -0.111214 9.103468 7.757458 -15.092746 13.352047 2.718689 9.773620 -2.026346 -20.094268 -2.402644 4.853371 15.326303 -0.539321 3.491611 3.267389 0.228090 0.068780 0.360170 18.165811 -11.672004 2.231977 -16.773412 0.820896 -13.982702 4.663381 -5.787376 16.734551 -0.146765 -3.765889 2.965015 0.135790 0.097810 0.221900 -3.736948 -0.604153 -6.794115 12.172357 2.242182 7.725723 -0.644553 2.287345 1.112692 6.471609 4.770502 -7.087612 8.579538 7.872362 19.290870 -3.204100 13.965310 -15.905660 -21.916914 0.673059 0.173329 -54.494887 0.789483 -5.212143 -6.702008 -9.136546 -0.994066 -4.114928 2.838489 0.311310 0.192110 0.027570 -0.027010 9.567137 -3.599392 4.054796 43.518391 -4.722249 -9.511567 36.627996 50.093025 12.523743 2.079063 -1.773233 -0.174420 0.068950 0.018250 -0.290680 
